<svg id="Icon_awesome-hamburger" data-name="Icon awesome-hamburger" xmlns="http://www.w3.org/2000/svg" width="68.006" height="43.647" viewBox="0 0 68.006 43.647">
  <path id="Icon_awesome-hamburger-2" data-name="Icon awesome-hamburger" d="M61.63,24.074H6.376C2.854,24.074,0,26.167,0,28.75s2.854,4.676,6.376,4.676H61.63c3.521,0,6.376-2.094,6.376-4.676S65.152,24.074,61.63,24.074Zm2.125,12.471H4.25c-1.174,0-2.125.7-2.125,1.559v1.559c0,3.444,3.806,6.235,8.5,6.235H57.38c4.695,0,8.5-2.792,8.5-6.235V38.1C65.881,37.242,64.929,36.544,63.756,36.544ZM7.789,20.956H60.217c4.592,0,7.255-4.277,4.625-7.393C59.505,7.238,47.757,2.26,34,2.25,20.25,2.26,8.5,7.238,3.164,13.562.531,16.678,3.2,20.956,7.789,20.956ZM51,10.044c1.174,0,2.125.7,2.125,1.559S52.178,13.162,51,13.162s-2.125-.7-2.125-1.559S49.831,10.044,51,10.044ZM34,6.926c1.174,0,2.125.7,2.125,1.559S35.177,10.044,34,10.044s-2.125-.7-2.125-1.559S32.829,6.926,34,6.926ZM17,10.044c1.174,0,2.125.7,2.125,1.559S18.175,13.162,17,13.162s-2.125-.7-2.125-1.559S15.828,10.044,17,10.044Z" transform="translate(0 -2.25)" fill="#fff"/>
</svg>
