<svg xmlns="http://www.w3.org/2000/svg" width="1586.278" height="1530.6" viewBox="0 0 1586.278 1530.6">
  <path id="Icon_awesome-hamburger" data-name="Icon awesome-hamburger" d="M1102.828,534.65H114.086a114.086,114.086,0,1,0,0,228.171h988.742a114.086,114.086,0,1,0,0-228.171Zm38.029,304.228H76.057a38.029,38.029,0,0,0-38.029,38.029v38.029A152.114,152.114,0,0,0,190.143,1067.05h836.628a152.114,152.114,0,0,0,152.114-152.114V876.907A38.029,38.029,0,0,0,1140.857,838.878ZM139.375,458.593h938.165c82.165,0,129.82-104.341,82.76-180.35C1064.8,123.941,854.573,2.488,608.457,2.25,362.365,2.488,152.114,123.941,56.615,278.219,9.507,354.228,57.209,458.593,139.375,458.593Zm773.311-266.2a38.029,38.029,0,1,1-38.029,38.029A38.029,38.029,0,0,1,912.685,192.393ZM608.457,116.336a38.029,38.029,0,1,1-38.029,38.029A38.029,38.029,0,0,1,608.457,116.336ZM304.228,192.393A38.029,38.029,0,1,1,266.2,230.421,38.029,38.029,0,0,1,304.228,192.393Z" transform="translate(533.525 -1.949) rotate(30)" fill="rgba(255,0,0,0.66)"/>
</svg>
